<svg data-v-423bf9ae="" xmlns="http://www.w3.org/2000/svg" viewBox="0 0 113.23263506063947 60" class="font"><!----><!----><!----><g data-v-423bf9ae="" id="b2b8ff04-1d59-455c-9f8c-c7e5a2526f53" fill="#CF4F72" transform="matrix(6.042295886811443,0,0,6.042295886811443,-7.7945602911134415,-25.861028140114264)"><path d="M1.29 14.08L2.94 14.08L2.94 11.13L5.19 11.13C7.66 11.13 9.07 9.84 9.07 7.63C9.07 5.50 7.66 4.28 5.19 4.28L1.29 4.28ZM2.94 9.65L2.94 5.77L5.12 5.77C6.64 5.77 7.49 6.38 7.49 7.67C7.49 9.00 6.64 9.65 5.12 9.65ZM10.00 11.84C10.00 13.16 11.00 14.15 12.61 14.15C13.69 14.15 14.55 13.83 15.08 13.17L15.08 14.08L16.66 14.08L16.65 9.20C16.63 7.56 15.55 6.58 13.64 6.58C12.22 6.58 11.47 6.90 10.43 7.52L11.09 8.64C11.83 8.13 12.57 7.88 13.29 7.88C14.46 7.88 15.06 8.44 15.06 9.38L15.06 9.60L12.81 9.60C11.02 9.62 10.00 10.49 10.00 11.84ZM11.51 11.77C11.51 11.06 12.00 10.78 13.05 10.78L15.06 10.78L15.06 11.47C14.98 12.28 14.10 12.88 12.95 12.88C12.05 12.88 11.51 12.45 11.51 11.77ZM18.27 13.27C18.27 13.82 18.65 14.21 19.15 14.21C19.66 14.21 20.03 13.82 20.03 13.27C20.03 12.74 19.66 12.36 19.15 12.36C18.65 12.36 18.27 12.74 18.27 13.27Z"></path></g><!----><!----></svg>